<?xml version="1.0" encoding="UTF-8"?>
<svg xmlns="http://www.w3.org/2000/svg" xmlns:xlink="http://www.w3.org/1999/xlink" width="10pt" height="10pt" viewBox="0 0 10 10" version="1.1">
<g id="surface1">
<path style=" stroke:none;fill-rule:nonzero;fill:rgb(100%,100%,100%);fill-opacity:1;" d="M 0.308594 0.308594 L 9.558594 0.308594 L 9.558594 9.558594 L 0.308594 9.558594 Z M 0.308594 0.308594 "/>
<path style=" stroke:none;fill-rule:nonzero;fill:rgb(47.058824%,54.509804%,61.176471%);fill-opacity:1;" d="M 9.5 0.371094 L 9.5 9.5 L 0.371094 9.5 L 0.371094 0.371094 L 9.5 0.371094 M 9.621094 0.246094 L 0.246094 0.246094 L 0.246094 9.621094 L 9.621094 9.621094 Z M 9.621094 0.246094 "/>
<path style=" stroke:none;fill-rule:nonzero;fill:rgb(96.862745%,56.078431%,56.078431%);fill-opacity:1;" d="M 0.308594 0.308594 L 9.558594 0.308594 L 9.558594 1.746094 L 0.308594 1.746094 Z M 0.308594 0.308594 "/>
<path style=" stroke:none;fill-rule:nonzero;fill:rgb(78.039216%,26.27451%,26.27451%);fill-opacity:1;" d="M 9.5 0.371094 L 9.5 1.6875 L 0.371094 1.6875 L 0.371094 0.371094 L 9.5 0.371094 M 9.621094 0.246094 L 0.246094 0.246094 L 0.246094 1.808594 L 9.621094 1.808594 Z M 9.621094 0.246094 "/>
<path style=" stroke:none;fill-rule:nonzero;fill:rgb(88.235294%,92.156863%,94.901961%);fill-opacity:1;" d="M 0.371094 8.757812 L 9.5 8.757812 L 9.5 9.5 L 0.371094 9.5 Z M 0.371094 8.757812 "/>
<path style=" stroke:none;fill-rule:nonzero;fill:rgb(77.254902%,83.137255%,87.058824%);fill-opacity:1;" d="M 5.714844 4.152344 L 6.496094 4.152344 L 6.496094 4.933594 L 5.714844 4.933594 Z M 5.714844 4.152344 "/>
<path style=" stroke:none;fill-rule:nonzero;fill:rgb(77.254902%,83.137255%,87.058824%);fill-opacity:1;" d="M 7.019531 4.152344 L 7.800781 4.152344 L 7.800781 4.933594 L 7.019531 4.933594 Z M 7.019531 4.152344 "/>
<path style=" stroke:none;fill-rule:nonzero;fill:rgb(77.254902%,83.137255%,87.058824%);fill-opacity:1;" d="M 4.414062 4.152344 L 5.195312 4.152344 L 5.195312 4.933594 L 4.414062 4.933594 Z M 4.414062 4.152344 "/>
<path style=" stroke:none;fill-rule:nonzero;fill:rgb(77.254902%,83.137255%,87.058824%);fill-opacity:1;" d="M 5.714844 5.457031 L 6.496094 5.457031 L 6.496094 6.238281 L 5.714844 6.238281 Z M 5.714844 5.457031 "/>
<path style=" stroke:none;fill-rule:nonzero;fill:rgb(77.254902%,83.137255%,87.058824%);fill-opacity:1;" d="M 7.019531 5.457031 L 7.800781 5.457031 L 7.800781 6.238281 L 7.019531 6.238281 Z M 7.019531 5.457031 "/>
<path style=" stroke:none;fill-rule:nonzero;fill:rgb(77.254902%,83.137255%,87.058824%);fill-opacity:1;" d="M 3.113281 5.457031 L 3.894531 5.457031 L 3.894531 6.238281 L 3.113281 6.238281 Z M 3.113281 5.457031 "/>
<path style=" stroke:none;fill-rule:nonzero;fill:rgb(77.254902%,83.137255%,87.058824%);fill-opacity:1;" d="M 4.414062 5.457031 L 5.195312 5.457031 L 5.195312 6.238281 L 4.414062 6.238281 Z M 4.414062 5.457031 "/>
<path style=" stroke:none;fill-rule:nonzero;fill:rgb(96.862745%,56.078431%,56.078431%);fill-opacity:1;" d="M 5.777344 6.816406 L 6.433594 6.816406 L 6.433594 7.476562 L 5.777344 7.476562 Z M 5.777344 6.816406 "/>
<path style=" stroke:none;fill-rule:nonzero;fill:rgb(78.039216%,26.27451%,26.27451%);fill-opacity:1;" d="M 6.375 6.878906 L 6.375 7.414062 L 5.839844 7.414062 L 5.839844 6.878906 L 6.375 6.878906 M 6.496094 6.757812 L 5.714844 6.757812 L 5.714844 7.539062 L 6.496094 7.539062 Z M 6.496094 6.757812 "/>
<path style=" stroke:none;fill-rule:nonzero;fill:rgb(77.254902%,83.137255%,87.058824%);fill-opacity:1;" d="M 3.113281 6.757812 L 3.894531 6.757812 L 3.894531 7.539062 L 3.113281 7.539062 Z M 3.113281 6.757812 "/>
<path style=" stroke:none;fill-rule:nonzero;fill:rgb(77.254902%,83.137255%,87.058824%);fill-opacity:1;" d="M 3.113281 4.152344 L 3.894531 4.152344 L 3.894531 4.933594 L 3.113281 4.933594 Z M 3.113281 4.152344 "/>
<path style=" stroke:none;fill-rule:nonzero;fill:rgb(77.254902%,83.137255%,87.058824%);fill-opacity:1;" d="M 1.808594 5.457031 L 2.589844 5.457031 L 2.589844 6.238281 L 1.808594 6.238281 Z M 1.808594 5.457031 "/>
<path style=" stroke:none;fill-rule:nonzero;fill:rgb(77.254902%,83.137255%,87.058824%);fill-opacity:1;" d="M 5.714844 2.851562 L 6.496094 2.851562 L 6.496094 3.632812 L 5.714844 3.632812 Z M 5.714844 2.851562 "/>
<path style=" stroke:none;fill-rule:nonzero;fill:rgb(77.254902%,83.137255%,87.058824%);fill-opacity:1;" d="M 7.019531 2.851562 L 7.800781 2.851562 L 7.800781 3.632812 L 7.019531 3.632812 Z M 7.019531 2.851562 "/>
<path style=" stroke:none;fill-rule:nonzero;fill:rgb(77.254902%,83.137255%,87.058824%);fill-opacity:1;" d="M 4.414062 2.851562 L 5.195312 2.851562 L 5.195312 3.632812 L 4.414062 3.632812 Z M 4.414062 2.851562 "/>
<path style=" stroke:none;fill-rule:nonzero;fill:rgb(77.254902%,83.137255%,87.058824%);fill-opacity:1;" d="M 3.113281 2.851562 L 3.894531 2.851562 L 3.894531 3.632812 L 3.113281 3.632812 Z M 3.113281 2.851562 "/>
<path style=" stroke:none;fill-rule:nonzero;fill:rgb(77.254902%,83.137255%,87.058824%);fill-opacity:1;" d="M 1.808594 4.152344 L 2.589844 4.152344 L 2.589844 4.933594 L 1.808594 4.933594 Z M 1.808594 4.152344 "/>
<path style=" stroke:none;fill-rule:nonzero;fill:rgb(77.254902%,83.137255%,87.058824%);fill-opacity:1;" d="M 1.808594 6.757812 L 2.589844 6.757812 L 2.589844 7.539062 L 1.808594 7.539062 Z M 1.808594 6.757812 "/>
<path style=" stroke:none;fill-rule:nonzero;fill:rgb(77.254902%,83.137255%,87.058824%);fill-opacity:1;" d="M 4.414062 6.757812 L 5.195312 6.757812 L 5.195312 7.539062 L 4.414062 7.539062 Z M 4.414062 6.757812 "/>
</g>
</svg>
